<svg xmlns="http://www.w3.org/2000/svg" viewBox="0 0 480 300" role="img" aria-label="thumbnail">
  <defs>
    <linearGradient id="g3" x1="0%" y1="0%" x2="100%" y2="100%">
      <stop offset="0%" stop-color="#7c5cff"/>
      <stop offset="100%" stop-color="#00e5ff"/>
    </linearGradient>
    </defs>
  
  <rect width="480" height="300" fill="#0b0f1a"/>
  <rect width="480" height="300" fill="url(#g3)" opacity="0.22"/>
  <g opacity="0.12" stroke="#8cc8ff" stroke-width="1">
    <line x1="0" y1="0" x2="0" y2="300"/><line x1="40" y1="0" x2="40" y2="300"/><line x1="80" y1="0" x2="80" y2="300"/><line x1="120" y1="0" x2="120" y2="300"/><line x1="160" y1="0" x2="160" y2="300"/><line x1="200" y1="0" x2="200" y2="300"/><line x1="240" y1="0" x2="240" y2="300"/><line x1="280" y1="0" x2="280" y2="300"/><line x1="320" y1="0" x2="320" y2="300"/><line x1="360" y1="0" x2="360" y2="300"/><line x1="400" y1="0" x2="400" y2="300"/><line x1="440" y1="0" x2="440" y2="300"/><line x1="480" y1="0" x2="480" y2="300"/>
    <line x1="0" y1="0" x2="480" y2="0"/><line x1="0" y1="40" x2="480" y2="40"/><line x1="0" y1="80" x2="480" y2="80"/><line x1="0" y1="120" x2="480" y2="120"/><line x1="0" y1="160" x2="480" y2="160"/><line x1="0" y1="200" x2="480" y2="200"/><line x1="0" y1="240" x2="480" y2="240"/><line x1="0" y1="280" x2="480" y2="280"/>
  </g>
    <g transform="translate(190,70)"><rect x="20" y="10" width="60" height="60" rx="6" fill="#101828" stroke="#7c5cff" stroke-width="2"/><circle cx="50" cy="40" r="14" fill="none" stroke="#00e5ff" stroke-width="2"/><circle cx="50" cy="40" r="4" fill="#00e5ff"/><line x1="78.0" y1="40.0" x2="88.0" y2="40.0" stroke="#7c5cff" stroke-width="2"/><line x1="63.93198934096836" y1="64.28785031663247" x2="68.90769981988562" y2="72.96208257257265" stroke="#7c5cff" stroke-width="2"/><line x1="35.86430907120399" y1="64.16986226616847" x2="30.815848025205412" y2="72.8019559326572" stroke="#7c5cff" stroke-width="2"/><line x1="22.000035511628894" y1="40.04459428166163" x2="12.000048194353496" y2="40.060520810826496" stroke="#7c5cff" stroke-width="2"/><line x1="36.02934621294807" y1="15.73436931043556" x2="31.039827003286668" y2="7.068072635591122" stroke="#7c5cff" stroke-width="2"/><line x1="64.0971787992592" y1="15.807655138417918" x2="69.13188551328034" y2="7.167531973567172" stroke="#7c5cff" stroke-width="2"/></g><text x="24" y="276" font-family="JetBrains Mono, monospace" font-size="15" fill="#eef2fb" opacity="0.85">Esp32 Iot</text>
</svg>